<svg width="32" height="32" viewBox="0 0 32 32" fill="none" xmlns="http://www.w3.org/2000/svg">
<path d="M16 32C24.8366 32 32 24.8366 32 16C32 7.16344 24.8366 0 16 0C7.16344 0 0 7.16344 0 16C0 24.8366 7.16344 32 16 32Z" fill="#151515"/>
<path d="M16 13.8626C16.4967 13.8631 16.9778 14.0358 17.3613 14.3514C17.7449 14.6669 18.0071 15.1057 18.1033 15.593C18.1996 16.0803 18.1238 16.5858 17.889 17.0235C17.6542 17.4611 17.2749 17.8038 16.8157 17.9931C16.3565 18.1824 15.8459 18.2065 15.3709 18.0615C14.8958 17.9164 14.4858 17.6111 14.2108 17.1975C13.9357 16.784 13.8125 16.2879 13.8623 15.7937C13.9121 15.2995 14.1317 14.8379 14.4838 14.4876C14.683 14.2889 14.9195 14.1314 15.1797 14.0241C15.4398 13.9169 15.7186 13.862 16 13.8626Z" fill="white"/>
<path d="M21.5075 14.5288H26.1162C26.157 14.5286 26.1967 14.5423 26.2287 14.5676C26.2604 14.5934 26.2817 14.6298 26.2887 14.6701C26.4012 15.2513 26.6975 17.4713 24.8299 17.4713H21.5387C19.725 17.4713 19.6849 14.5288 21.5174 14.5288" fill="white"/>
<path d="M10.4924 17.4713H5.88246C5.84184 17.4714 5.80246 17.4572 5.77119 17.4313C5.73978 17.4058 5.7185 17.3699 5.7112 17.3301C5.5987 16.7488 5.30247 14.5288 7.16997 14.5288H10.4712C12.285 14.5288 12.3249 17.4713 10.4924 17.4713Z" fill="white"/>
<path d="M18.8538 11.0638L22.1137 7.80381C22.1431 7.77602 22.181 7.75885 22.2213 7.75505C22.2619 7.75154 22.3025 7.76213 22.3362 7.78505C22.83 8.12005 24.605 9.47505 23.2825 10.7975L20.95 13.125C19.6675 14.4075 17.5588 12.35 18.8538 11.0588" fill="white"/>
<path d="M13.1463 20.9362L9.8863 24.1937C9.85744 24.2227 9.81946 24.2408 9.77879 24.245C9.7381 24.2491 9.69728 24.2385 9.6638 24.215C9.17005 23.8787 7.39504 22.5237 8.71754 21.2037L11.05 18.875C12.3325 17.5875 14.4413 19.6425 13.1463 20.9362Z" fill="white"/>
<path d="M14.5275 10.4913V5.88252C14.5276 5.84154 14.5421 5.8019 14.5683 5.77041C14.5946 5.73893 14.631 5.71758 14.6712 5.71002C15.2512 5.60002 17.4725 5.30127 17.4725 7.17127V10.4625C17.4725 12.2763 14.5275 12.3163 14.5275 10.4838" fill="white"/>
<path d="M17.4725 21.5088V26.1175C17.4717 26.1582 17.4571 26.1974 17.4312 26.2288C17.405 26.26 17.3688 26.2813 17.3287 26.2888C16.7475 26.4001 14.5275 26.6963 14.5275 24.8288V21.5288C14.5275 19.7163 17.4725 19.6738 17.4725 21.5088Z" fill="white"/>
<path d="M11.065 13.1449L7.80496 9.88489C7.77638 9.85641 7.7587 9.81882 7.75497 9.77864C7.75041 9.73849 7.76063 9.69805 7.78372 9.66489C8.12122 9.16489 9.4762 7.39615 10.7974 8.71614L13.125 11.0499C14.4087 12.3324 12.3512 14.4412 11.06 13.1449" fill="white"/>
<path d="M20.935 18.855L24.195 22.1125C24.2235 22.1415 24.2412 22.1795 24.2451 22.22C24.249 22.2605 24.2388 22.3011 24.2163 22.335C23.8788 22.835 22.5238 24.6038 21.2025 23.2838L18.875 20.95C17.5913 19.6688 19.6488 17.5588 20.94 18.855" fill="white"/>
</svg>
